{
    "accessors" : [
        {
            "bufferView" : 0,
            "componentType" : 5121,
            "count" : 36,
            "max" : [
                23
            ],
            "min" : [
                0
            ],
            "type" : "SCALAR"
        },
        {
            "bufferView" : 1,
            "componentType" : 5126,
            "count" : 24,
            "max" : [
                1.0000004768371582,
                1.0000003576278687,
                1.0
            ],
            "min" : [
                -1.0000003576278687,
                -1.0000005960464478,
                -1.0
            ],
            "type" : "VEC3"
        },
        {
            "bufferView" : 2,
            "componentType" : 5126,
            "count" : 24,
            "max" : [
                1.0,
                1.0,
                1.0
            ],
            "min" : [
                -1.0,
                -1.0,
                -1.0
            ],
            "type" : "VEC3"
        },
        {
            "bufferView" : 3,
            "componentType" : 5126,
            "count" : 3,
            "max" : [
                3.7083333333333335
            ],
            "min" : [
                0.0
            ],
            "type" : "SCALAR"
        },
        {
            "bufferView" : 4,
            "componentType" : 5126,
            "count" : 9,
            "max" : [
                50.0133171081543,
                0.0,
                7.989642143249512
            ],
            "min" : [
                0.0,
                -22.022279739379883,
                0.0
            ],
            "type" : "VEC3"
        },
        {
            "bufferView" : 5,
            "componentType" : 5126,
            "count" : 90,
            "max" : [
                3.7083333333333335
            ],
            "min" : [
                0.0
            ],
            "type" : "SCALAR"
        },
        {
            "bufferView" : 6,
            "componentType" : 5126,
            "count" : 90,
            "max" : [
                0.5678247213363647,
                0.4686858355998993,
                0.5149019956588745,
                0.7148922085762024
            ],
            "min" : [
                0.48320260643959045,
                0.2537800967693329,
                0.31953075528144836,
                0.5307775735855103
            ],
            "type" : "VEC4"
        },
        {
            "bufferView" : 7,
            "componentType" : 5126,
            "count" : 3,
            "max" : [
                3.7083333333333335
            ],
            "min" : [
                0.0
            ],
            "type" : "SCALAR"
        },
        {
            "bufferView" : 8,
            "componentType" : 5126,
            "count" : 9,
            "max" : [
                0.0,
                0.0,
                0.0
            ],
            "min" : [
                0.0,
                0.0,
                0.0
            ],
            "type" : "VEC3"
        },
        {
            "bufferView" : 9,
            "componentType" : 5126,
            "count" : 90,
            "max" : [
                3.7083333333333335
            ],
            "min" : [
                0.0
            ],
            "type" : "SCALAR"
        },
        {
            "bufferView" : 10,
            "componentType" : 5126,
            "count" : 90,
            "max" : [
                0.0,
                0.0,
                0.9129676818847656,
                0.7263500690460205
            ],
            "min" : [
                0.0,
                0.0,
                0.6873249411582947,
                0.40803200006484985
            ],
            "type" : "VEC4"
        },
        {
            "bufferView" : 11,
            "componentType" : 5126,
            "count" : 3,
            "max" : [
                3.7083333333333335
            ],
            "min" : [
                0.0
            ],
            "type" : "SCALAR"
        },
        {
            "bufferView" : 12,
            "componentType" : 5126,
            "count" : 9,
            "max" : [
                2.9248409271240234,
                2.9248409271240234,
                2.9248406887054443
            ],
            "min" : [
                0.0,
                0.0,
                0.0
            ],
            "type" : "VEC3"
        },
        {
            "bufferView" : 13,
            "componentType" : 5126,
            "count" : 3,
            "max" : [
                3.7083333333333335
            ],
            "min" : [
                0.0
            ],
            "type" : "SCALAR"
        },
        {
            "bufferView" : 14,
            "componentType" : 5126,
            "count" : 9,
            "max" : [
                9.634312629699707,
                9.634312629699707,
                9.63431167602539
            ],
            "min" : [
                0.0,
                0.0,
                0.0
            ],
            "type" : "VEC3"
        }
    ],
    "animations" : [
        {
            "channels" : [
                {
                    "sampler" : 0,
                    "target" : {
                        "node" : 0,
                        "path" : "translation"
                    }
                },
                {
                    "sampler" : 1,
                    "target" : {
                        "node" : 0,
                        "path" : "rotation"
                    }
                }
            ],
            "name" : "CameraAction",
            "samplers" : [
                {
                    "input" : 3,
                    "interpolation" : "CUBICSPLINE",
                    "output" : 4
                },
                {
                    "input" : 5,
                    "interpolation" : "LINEAR",
                    "output" : 6
                }
            ]
        },
        {
            "channels" : [
                {
                    "sampler" : 0,
                    "target" : {
                        "node" : 1,
                        "path" : "translation"
                    }
                },
                {
                    "sampler" : 1,
                    "target" : {
                        "node" : 1,
                        "path" : "rotation"
                    }
                },
                {
                    "sampler" : 2,
                    "target" : {
                        "node" : 1,
                        "path" : "scale"
                    }
                }
            ],
            "name" : "Rotation",
            "samplers" : [
                {
                    "input" : 7,
                    "interpolation" : "CUBICSPLINE",
                    "output" : 8
                },
                {
                    "input" : 9,
                    "interpolation" : "LINEAR",
                    "output" : 10
                },
                {
                    "input" : 11,
                    "interpolation" : "CUBICSPLINE",
                    "output" : 12
                }
            ]
        },
        {
            "channels" : [
                {
                    "sampler" : 0,
                    "target" : {
                        "node" : 1,
                        "path" : "scale"
                    }
                }
            ],
            "name" : "Scale",
            "samplers" : [
                {
                    "input" : 13,
                    "interpolation" : "CUBICSPLINE",
                    "output" : 14
                }
            ]
        }
    ],
    "asset" : {
        "generator" : "Khronos Blender glTF 2.0 exporter",
        "version" : "2.0"
    },
    "bufferViews" : [
        {
            "buffer" : 0,
            "byteLength" : 36,
            "byteOffset" : 0,
            "target" : 34963
        },
        {
            "buffer" : 0,
            "byteLength" : 288,
            "byteOffset" : 36,
            "target" : 34962
        },
        {
            "buffer" : 0,
            "byteLength" : 288,
            "byteOffset" : 324,
            "target" : 34962
        },
        {
            "buffer" : 0,
            "byteLength" : 12,
            "byteOffset" : 612
        },
        {
            "buffer" : 0,
            "byteLength" : 108,
            "byteOffset" : 624
        },
        {
            "buffer" : 0,
            "byteLength" : 360,
            "byteOffset" : 732
        },
        {
            "buffer" : 0,
            "byteLength" : 1440,
            "byteOffset" : 1092
        },
        {
            "buffer" : 0,
            "byteLength" : 12,
            "byteOffset" : 2532
        },
        {
            "buffer" : 0,
            "byteLength" : 108,
            "byteOffset" : 2544
        },
        {
            "buffer" : 0,
            "byteLength" : 360,
            "byteOffset" : 2652
        },
        {
            "buffer" : 0,
            "byteLength" : 1440,
            "byteOffset" : 3012
        },
        {
            "buffer" : 0,
            "byteLength" : 12,
            "byteOffset" : 4452
        },
        {
            "buffer" : 0,
            "byteLength" : 108,
            "byteOffset" : 4464
        },
        {
            "buffer" : 0,
            "byteLength" : 12,
            "byteOffset" : 4572
        },
        {
            "buffer" : 0,
            "byteLength" : 108,
            "byteOffset" : 4584
        }
    ],
    "buffers" : [
        {
            "byteLength" : 4692,
            "uri" : "myCube2.bin"
        }
    ],
    "cameras" : [
        {
            "name" : "Camera",
            "perspective" : {
                "aspectRatio" : 1.7777777777777777,
                "yfov" : 0.5033799372418416,
                "zfar" : 100.0,
                "znear" : 0.10000000149011612
            },
            "type" : "perspective"
        }
    ],
    "materials" : [
        {
            "name" : "Material",
            "pbrMetallicRoughness" : {
                "baseColorFactor" : [
                    0.6400000190734865,
                    0.6400000190734865,
                    0.6400000190734865,
                    1.0
                ],
                "metallicFactor" : 0.0
            }
        }
    ],
    "meshes" : [
        {
            "name" : "Cube",
            "primitives" : [
                {
                    "attributes" : {
                        "NORMAL" : 2,
                        "POSITION" : 1
                    },
                    "indices" : 0,
                    "material" : 0
                }
            ]
        }
    ],
    "nodes" : [
        {
            "camera" : 0,
            "name" : "Camera",
            "rotation" : [
                0.5678247809410095,
                0.2537800967693329,
                0.31953075528144836,
                0.7148922681808472
            ],
            "translation" : [
                24.576887130737305,
                -22.022279739379883,
                7.989642143249512
            ]
        },
        {
            "mesh" : 0,
            "name" : "Cube",
            "rotation" : [
                0.0,
                0.0,
                0.6873250007629395,
                0.7263500690460205
            ],
            "scale" : [
                2.9248409271240234,
                2.9248409271240234,
                2.9248406887054443
            ]
        },
        {
            "name" : "Lamp",
            "rotation" : [
                0.16907575726509094,
                0.27217137813568115,
                0.7558802962303162,
                0.570947527885437
            ],
            "scale" : [
                1.0,
                0.9999999403953552,
                1.0
            ],
            "translation" : [
                4.076245307922363,
                1.0054539442062378,
                5.903861999511719
            ]
        }
    ],
    "scene" : 0,
    "scenes" : [
        {
            "name" : "Scene",
            "nodes" : [
                1,
                2,
                0
            ]
        }
    ]
}
