{"asset":{"version":"2.0","generator":"babylon.js glTF exporter for maya 2018 v1.2.9","copyright":"2017 (c) BabylonJS"},"extensionsUsed":["KHR_lights"],"scene":0,"scenes":[{"nodes":[0,1,2,3],"extensions":{"KHR_lights":{"light":0}}}],"nodes":[{"mesh":0,"translation":[0.0,0.0,0.0],"rotation":[0.0,0.0,0.0,1.0],"scale":[1.0,1.0,1.0],"name":"New_Face_Cushion"},{"mesh":1,"translation":[0.0,0.0,0.0],"rotation":[0.0,0.0,0.0,1.0],"scale":[1.0,1.0,1.0],"name":"New_MouthCone03"},{"mesh":2,"translation":[0.0,0.0,0.0],"rotation":[0.0,0.0,0.0,1.0],"scale":[1.0,1.0,1.0],"name":"NewT_bone_B"},{"camera":0,"translation":[1.08497429,120.6455,357.016174],"rotation":[0.0,0.0,0.0,1.0],"scale":[1.0,1.0,1.0],"name":"camera1"}],"cameras":[{"perspective":{"yfov":0.6605947,"zfar":10000.0,"znear":0.1},"type":"perspective","name":"camera1"}],"meshes":[{"primitives":[{"attributes":{"POSITION":1,"NORMAL":2,"TANGENT":3,"TEXCOORD_0":4},"indices":0,"mode":4,"material":0}],"name":"New_Face_Cushion"},{"primitives":[{"attributes":{"POSITION":6,"NORMAL":7,"TANGENT":8,"TEXCOORD_0":9},"indices":5,"mode":4,"material":0}],"name":"New_MouthCone03"},{"primitives":[{"attributes":{"POSITION":11,"NORMAL":12,"TANGENT":13,"TEXCOORD_0":14},"indices":10,"mode":4,"material":0}],"name":"NewT_bone_B"}],"accessors":[{"bufferView":0,"componentType":5123,"count":14760,"type":"SCALAR","name":"accessorIndices"},{"bufferView":1,"componentType":5126,"count":4629,"max":[48.2928467,143.479538,77.63979],"min":[-48.2928467,37.38431,16.9656525],"type":"VEC3","name":"accessorPositions"},{"bufferView":1,"byteOffset":55548,"componentType":5126,"count":4629,"type":"VEC3","name":"accessorNormals"},{"bufferView":2,"componentType":5126,"count":4629,"type":"VEC4","name":"accessorTangents"},{"bufferView":3,"componentType":5126,"count":4629,"type":"VEC2","name":"accessorUVs"},{"bufferView":0,"byteOffset":29520,"componentType":5123,"count":86052,"type":"SCALAR","name":"accessorIndices"},{"bufferView":1,"byteOffset":111096,"componentType":5126,"count":44474,"max":[40.74779,122.784981,92.2025],"min":[-40.8146,43.7591248,44.9667358],"type":"VEC3","name":"accessorPositions"},{"bufferView":1,"byteOffset":644784,"componentType":5126,"count":44474,"type":"VEC3","name":"accessorNormals"},{"bufferView":2,"byteOffset":74064,"componentType":5126,"count":44474,"type":"VEC4","name":"accessorTangents"},{"bufferView":3,"byteOffset":37032,"componentType":5126,"count":44474,"type":"VEC2","name":"accessorUVs"},{"bufferView":0,"byteOffset":201624,"componentType":5123,"count":8400,"type":"SCALAR","name":"accessorIndices"},{"bufferView":1,"byteOffset":1178472,"componentType":5126,"count":3059,"max":[44.57812,196.545837,96.59156],"min":[-42.4081726,44.745163,62.88738],"type":"VEC3","name":"accessorPositions"},{"bufferView":1,"byteOffset":1215180,"componentType":5126,"count":3059,"type":"VEC3","name":"accessorNormals"},{"bufferView":2,"byteOffset":785648,"componentType":5126,"count":3059,"type":"VEC4","name":"accessorTangents"},{"bufferView":3,"byteOffset":392824,"componentType":5126,"count":3059,"type":"VEC2","name":"accessorUVs"}],"bufferViews":[{"buffer":0,"byteLength":218424,"name":"bufferViewScalar"},{"buffer":0,"byteOffset":218424,"byteLength":1251888,"byteStride":12,"name":"bufferViewFloatVec3"},{"buffer":0,"byteOffset":1470312,"byteLength":834592,"byteStride":16,"name":"bufferViewFloatVec4"},{"buffer":0,"byteOffset":2304904,"byteLength":417296,"byteStride":8,"name":"bufferViewFloatVec2"}],"buffers":[{"uri":"test_01.bin","byteLength":2722200}],"materials":[{"pbrMetallicRoughness":{"baseColorFactor":[0.9999999,0.9999999,0.9999999,1.0],"metallicFactor":0.9999998,"roughnessFactor":0.75},"emissiveFactor":[0.0,0.0,0.0],"alphaMode":"OPAQUE","name":"lambert1"}],"extensions":{"KHR_lights":{"lights":[{"color":[1.0,1.0,1.0],"intensity":1.0,"type":"ambient"}]}}}